# xmcd
#
# Track frame offsets: 
#        150
#        13657
#        27181
#        38781
#        55159
#        73160
#        89598
#        98938
#        114584
#        125016
#        133832
#
# Disc length: 2004 seconds
#
# Revision: 0
# Processed by: cddbd v1.5.2PL0 Copyright (c) Steve Scherf et al.
# Submitted via: ExactAudioCopy v0.99pb5
#
DISCID=9c07d20b
DTITLE=Happy Birthday - Happy Birthday
DYEAR=2010
DGENRE=Indie
TTITLE0=Girls FM
TTITLE1=2 Shy
TTITLE2=Cracked
TTITLE3=Perverted Girl
TTITLE4=Subliminal Message
TTITLE5=Eyes Music
TTITLE6=Maxine The Teenage Eskimo
TTITLE7=I Want To Stay (I Run Away)
TTITLE8=Pink Strawberry Shake
TTITLE9=Zit
TTITLE10=Fun
EXTD=
EXTT0=
EXTT1=
EXTT2=
EXTT3=
EXTT4=
EXTT5=
EXTT6=
EXTT7=
EXTT8=
EXTT9=
EXTT10=
PLAYORDER=
